<svg width="173" height="50" viewBox="0 0 173 50" fill="none" xmlns="http://www.w3.org/2000/svg">
<g clip-path="url(#clip0_185_9)">
<path fill-rule="evenodd" clip-rule="evenodd" d="M105.832 49.9997H158.487L160.552 35.8379H108.1L105.832 49.9997ZM106.924 35.8379H0L1.8788 49.9997H104.657L106.924 35.8379Z" fill="url(#paint0_linear_185_9)"/>
<path d="M61.9861 37.7168L60.1719 47.9769H63.2342C65.3677 47.9769 66.1369 46.8931 66.3691 45.448L66.4272 45.1012C66.6739 43.6995 66.2095 42.9047 65.2371 42.6879C66.3836 42.4567 66.9206 41.7341 67.0948 40.5636L67.1383 40.2168C67.385 38.5116 66.224 37.7168 64.6275 37.7168H61.9861ZM65.0194 40.7659C64.8887 41.5607 64.642 42.081 63.8293 42.081H63.2342L63.7567 39.1041H64.2501C64.8452 39.1041 65.2516 39.3497 65.1064 40.318L65.0194 40.7659ZM64.3372 45.318C64.1921 46.1128 63.9744 46.5896 63.0746 46.5896H62.436L63.002 43.3526H63.6116C64.3227 43.3526 64.613 43.6706 64.4388 44.6966L64.3372 45.318Z" fill="black"/>
<path d="M73.6055 37.7168H68.9177L67.1035 47.9769H71.8929L72.1687 46.4307H69.3821L69.9046 43.4682H72.3864L72.6622 41.922H70.1804L70.6593 39.263H73.3443L73.6055 37.7168Z" fill="black"/>
<path d="M81.8399 37.7168H77.1521L75.3379 47.9769H80.1273L80.4031 46.4307H77.6165L78.139 43.4682H80.6208L80.8965 41.922H78.4147L78.8937 39.263H81.5787L81.8399 37.7168Z" fill="black"/>
<path d="M85.7056 47.9769L86.0104 46.2139H83.4706L84.98 37.7168H82.9626L81.1484 47.9769H85.7056Z" fill="black"/>
<path d="M90.3804 37.7168H88.363L86.5488 47.9769H88.5662L90.3804 37.7168Z" fill="black"/>
<path d="M91.1251 37.7168L90.8203 39.422H92.7796L91.2702 47.9769H93.2731L94.7825 39.422H96.7418L97.0611 37.7168H91.1251Z" fill="black"/>
<path d="M102.504 37.7168H97.8161L96.002 47.9769H100.791L101.067 46.4307H98.2806L98.803 43.4682H101.285L101.561 41.922H99.0788L99.5577 39.263H102.243L102.504 37.7168Z" fill="black"/>
<path d="M110.898 37.7168L109.084 47.9769H112.146C114.28 47.9769 115.049 46.8931 115.281 45.448L115.339 45.1012C115.586 43.6995 115.122 42.9047 114.149 42.6879C115.296 42.4567 115.833 41.7341 116.007 40.5636L116.05 40.2168C116.297 38.5116 115.136 37.7168 113.54 37.7168H110.898ZM113.931 40.7659C113.801 41.5607 113.554 42.081 112.741 42.081H112.146L112.669 39.1041H113.162C113.757 39.1041 114.164 39.3497 114.019 40.318L113.931 40.7659ZM113.249 45.318C113.104 46.1128 112.887 46.5896 111.987 46.5896H111.348L111.914 43.3526H112.524C113.235 43.3526 113.525 43.6706 113.351 44.6966L113.249 45.318Z" fill="black"/>
<path d="M122.518 37.7168H117.83L116.016 47.9769H120.805L121.081 46.4307H118.294L118.817 43.4682H121.299L121.574 41.922H119.092L119.571 39.263H122.256L122.518 37.7168Z" fill="black"/>
<path d="M123.227 37.7168L122.922 39.422H124.881L123.372 47.9769H125.375L126.884 39.422H128.843L129.163 37.7168H123.227Z" fill="black"/>
<path d="M137.031 37.7168H132.343L130.529 47.9769H135.319L135.594 46.4307H132.808L133.33 43.4682H135.812L136.088 41.922H133.606L134.085 39.263H136.77L137.031 37.7168Z" fill="black"/>
<path d="M140.897 47.9769L141.202 46.2139H138.662L140.171 37.7168H138.154L136.34 47.9769H140.897Z" fill="black"/>
<path d="M145.572 37.7168H143.554L141.74 47.9769H143.758L145.572 37.7168Z" fill="black"/>
<path d="M146.317 37.7168L146.012 39.422H147.971L146.462 47.9769H148.464L149.974 39.422H151.933L152.252 37.7168H146.317Z" fill="black"/>
<path d="M157.695 37.7168H153.008L151.193 47.9769H155.983L156.259 46.4307H153.472L153.994 43.4682H156.476L156.752 41.922H154.27L154.749 39.263H157.434L157.695 37.7168Z" fill="black"/>
<mask id="mask0_185_9" style="mask-type:luminance" maskUnits="userSpaceOnUse" x="24" y="0" width="149" height="31">
<path d="M173 0H24.9629V30.3468H173V0Z" fill="white"/>
</mask>
<g mask="url(#mask0_185_9)">
<path d="M30.8678 0H37.989L32.084 30.3468H24.9629L30.8678 0ZM29.3457 23.7166H41.287L40.0272 30.3468H28.121L29.3457 23.7166ZM30.9555 11.8802H43.0629L41.7683 18.4666H29.6519L30.9555 11.8802ZM33.9911 0H45.9322L44.6727 6.63893H32.7313L33.9911 0Z" fill="white"/>
<path d="M49.4498 0H56.571L50.6658 30.3468H43.5449L49.4498 0ZM47.9277 23.7166H59.3878L58.128 30.3468H46.6679L47.9277 23.7166Z" fill="white"/>
<path d="M67.0338 0H74.155L68.2498 30.3468H61.1289L67.0338 0Z" fill="white"/>
<path d="M76.3242 0H94.9841L93.7331 6.63893H75.0645L76.3242 0ZM81.1357 4.72587H88.2569L83.2352 30.3468H76.1492L81.1357 4.72587Z" fill="white"/>
<path d="M137.579 0H144.691L138.795 30.3468H131.674L137.579 0ZM136.057 23.7166H147.972L146.712 30.3468H134.797L136.057 23.7166ZM137.657 11.8802H149.774L148.47 18.4666H136.363L137.657 11.8802ZM140.702 0H152.643L151.383 6.63893H139.442L140.702 0Z" fill="white"/>
<path d="M154.332 0H173.001L171.741 6.63893H153.072L154.332 0ZM159.152 4.72587H166.273L161.278 30.3468H154.157L159.152 4.72587Z" fill="white"/>
<path d="M132.47 4.75139C132.334 4.19139 132.141 3.64688 131.893 3.12662C131.273 2.10524 130.358 1.29516 129.268 0.80299C128.007 0.237363 126.635 -0.037322 125.253 -0.000665136H115.822L113.513 11.8795H102.053L103.076 6.63824H111.054L112.306 -0.000665136H97.2322L94.9228 11.8795L93.6456 18.466L91.3359 30.3462H106.4L107.651 23.716H99.7781L100.802 18.4747H112.262L109.943 30.3548H119.803C121.711 30.4022 123.602 29.9855 125.314 29.1407C126.806 28.3953 128.078 27.2755 129.006 25.8911C129.324 25.2445 129.579 24.5688 129.767 23.8732C129.954 23.1456 130.048 22.3971 130.047 21.6457C130.045 21.0239 129.966 20.4047 129.81 19.8025C129.666 19.2173 129.439 18.6555 129.137 18.1341C128.789 17.554 128.342 17.0395 127.816 16.6141C127.27 16.1771 126.643 15.8533 125.97 15.6619V14.5787C127.158 14.5073 128.308 14.1345 129.312 13.4956C130.287 12.8607 131.092 11.9969 131.656 10.9797C132.039 10.3816 132.317 9.72292 132.479 9.03174C132.654 8.30509 132.742 7.56032 132.741 6.81295C132.742 6.11685 132.651 5.4237 132.47 4.75139ZM122.847 21.4623C122.762 21.8027 122.617 22.1252 122.418 22.4144C122.186 22.8254 121.859 23.1755 121.465 23.4364C121.079 23.6828 120.627 23.8047 120.17 23.7858H118.298L119.383 18.2825H121.255C121.538 18.2747 121.819 18.3315 122.077 18.4485C122.324 18.5822 122.532 18.7779 122.681 19.0163C122.781 19.1892 122.849 19.3785 122.882 19.5754C122.926 19.8351 122.946 20.0982 122.943 20.3616C122.944 20.7324 122.9 21.1019 122.812 21.4623H122.847ZM125.13 9.7568C125.06 10.1058 124.936 10.4418 124.763 10.7526C124.53 11.1562 124.203 11.4978 123.809 11.7485C123.431 11.981 122.994 12.1021 122.55 12.0979H120.634L121.718 6.59457H123.591C123.892 6.57365 124.193 6.63081 124.465 6.76055C124.682 6.88223 124.858 7.0644 124.973 7.28466C125.113 7.45717 125.202 7.66639 125.227 7.8874C125.301 8.51003 125.281 9.14038 125.165 9.7568H125.13Z" fill="#FFDE17"/>
</g>
</g>
<defs>
<linearGradient id="paint0_linear_185_9" x1="62.46" y1="43.0633" x2="13.3523" y2="43.0633" gradientUnits="userSpaceOnUse">
<stop stop-color="#FFDE17"/>
<stop offset="1" stop-color="#FFDE17" stop-opacity="0"/>
</linearGradient>
<clipPath id="clip0_185_9">
<rect width="173" height="50" fill="white"/>
</clipPath>
</defs>
</svg>
